<svg xmlns="http://www.w3.org/2000/svg" width="512" height="512" viewBox="0 0 512 512" data-svgdocument="" id="_y0OVYIEf0HA1xc-rDHsrJ" class="fl-svgdocument" x="0" y="0" style="overflow: hidden;" xmlns:xlink="http://www.w3.org/1999/xlink"><defs id="_egic1hkbd_2" transform="matrix(1.1127851009368896, 0, 0, 1.1127851009368896, -22.47606086730957, -21.44416046142578)"/><g id="_egic1hkbd_3" transform="matrix(1.0521382093429565, 0, 0, 1.0521382093429565, -9.442998886108398, -16.66734504699707)"><path id="_egic1hkbd_4" d="M70.891,66.262c5.719-5.666,9.272-13.518,9.272-22.189c0-17.231-14.029-31.252-31.266-31.252      c-17.233,0-31.254,14.021-31.254,31.252c0,8.671,3.547,16.518,9.257,22.184l-9.216,9.223      C9.346,67.138,4.752,56.047,4.752,44.266c0-11.792,4.589-22.883,12.93-31.219c17.213-17.211,45.218-17.211,62.438,0      c8.337,8.336,12.923,19.427,12.929,31.219c0,11.781-4.592,22.872-12.929,31.213L70.891,66.262z" stroke="none" fill="#1761a0" transform="matrix(2.1476030349731445, 0, 0, 2.1476030349731445, 146.53289794921875, 61.16481018066406)"/><path id="_egic1hkbd_5" d="M32.551,73.809c0,7.067-5.746,12.817-12.82,12.817v13.206c14.352,0,26.03-11.673,26.03-26.023H32.551z" stroke="none" fill="#cf1717" transform="matrix(2.1476030349731445, 0, 0, 2.1476030349731445, 146.57791137695312, 60.79591369628906)"/><path id="_egic1hkbd_6" d="M52.24,73.809c0,14.351,11.661,26.023,26.003,26.023V86.626c-7.058,0-12.806-5.75-12.806-12.817H52.24z" stroke="none" fill="#cf1717" transform="matrix(2.1476030349731445, 0, 0, 2.1476030349731445, 147.63111877441406, 60.79591369628906)"/><path id="_egic1hkbd_7" fill-rule="evenodd" clip-rule="evenodd" d="M48.906,20.573c1.975,5.479,3.479,11.439,5.473,16.912     c5.805,0,12.222-0.007,17.63,0c-4.53,3.686-9.578,6.86-14.176,10.476c1.784,5.604,3.724,11.051,5.36,16.795     c-5.012-3.204-9.533-6.898-14.407-10.242c-4.859,3.277-9.692,7.223-14.415,10.242c1.501-5.367,3.492-11.275,5.356-16.673     c-4.551-3.782-9.833-6.834-14.406-10.597c4.456-0.093,13.003,0.155,17.626-0.124C45.118,31.947,46.722,25.971,48.906,20.573z" stroke="none" fill="#cf1717" transform="matrix(2.1476030349731445, 0, 0, 2.1476030349731445, 147.457763671875, 61.305076599121094)"/></g><path id="_46Qs62rh41NjA4PgJRJSp" fill="#000000" transform="matrix(0.7512732744216919, 0, 0, 0.8277230262756348, 254.71058654785156, 344.54412841796875)" text="Lazy" text-anchor="middle" font-size="100" letter-spacing="0" side="left" offset="0.5" dx="0" dy="0" space="preserve" href="" font-family="Bungee Inline" font-scale="contain" x="0" y="0" data-fl-textpath="" font-weight="400" font-style="normal" d="M-77.6 0L-77.6 0L-128.5 0Q-130.4 0 -131.25-0.85Q-132.1-1.7 -132.1-3.6L-132.1-3.6L-132.1-68.4Q-132.1-70.3 -131.25-71.15Q-130.4-72 -128.5-72L-128.5-72L-113-72Q-111.1-72 -110.25-71.15Q-109.4-70.3 -109.4-68.4L-109.4-68.4L-109.4-18.9L-95.7-18.9L-95.7-35.1Q-95.7-37 -94.85-37.85Q-94-38.7 -92.1-38.7L-92.1-38.7L-77.6-38.7Q-75.7-38.7 -74.85-37.85Q-74-37 -74-35.1L-74-35.1L-74-3.6Q-74-1.7 -74.85-0.85Q-75.7 0 -77.6 0ZM-121.2-63L-121.2-9L-84.4-9L-84.4-29.7L-85.4-29.7L-85.4-10L-120.2-10L-120.2-63L-121.2-63ZM-52.5-27.2L-52.5-30.3Q-52.5-33 -52.05-35.3Q-51.6-37.6 -50.9-39.6L-50.9-39.6L-44.5-56Q-43.5-58.5 -42.3-60.25Q-41.1-62 -38.1-62L-38.1-62L-28.299999999999997-62Q-25.5-62 -24.299999999999997-60.25Q-23.1-58.5 -22-55.9L-22-55.9L-15.100000000000001-39.6Q-14.399999999999999-37.6 -13.950000000000003-35.3Q-13.5-33 -13.5-30.3L-13.5-30.3L-13.5-27.2L-52.5-27.2ZM-36.5-51L-36.5-51L-41.2-35.8L-25.5-35.8L-30.200000000000003-51Q-30.6-51.9 -31.049999999999997-52.3Q-31.5-52.7 -32.1-52.7L-32.1-52.7L-34.6-52.7Q-35.2-52.7 -35.65-52.3Q-36.1-51.9 -36.5-51ZM-13.5-26.2L-13.5-9L-12.5-9L-12.5-30.3Q-12.5-33.1 -12.950000000000003-35.45Q-13.399999999999999-37.8 -14.200000000000003-40L-14.200000000000003-40L-21.1-56.3Q-22.299999999999997-59.2 -23.65-61.1Q-25-63 -28.299999999999997-63L-28.299999999999997-63L-38.1-63Q-41.5-63 -42.9-61.1Q-44.3-59.2 -45.4-56.4L-45.4-56.4L-51.8-40Q-52.6-37.8 -53.05-35.45Q-53.5-33.1 -53.5-30.3L-53.5-30.3L-53.5-9L-52.5-9L-52.5-26.2L-13.5-26.2ZM-42.2-17.6L-42.2-3.6Q-42.2-1.7 -43.05-0.85Q-43.9 0 -45.8 0L-45.8 0L-60.5 0Q-62.4 0 -63.25-0.85Q-64.1-1.7 -64.1-3.6L-64.1-3.6L-64.1-30Q-64.1-33 -63.15-36.9Q-62.2-40.8 -60.2-46L-60.2-46L-51.5-68.7Q-50.9-70.4 -49.65-71.2Q-48.4-72 -46.4-72L-46.4-72L-19.5-72Q-17.6-72 -16.35-71.2Q-15.100000000000001-70.4 -14.5-68.7L-14.5-68.7L-5.799999999999997-46Q-3.799999999999997-40.8 -2.8499999999999943-36.9Q-1.9000000000000057-33 -1.9000000000000057-30L-1.9000000000000057-30L-1.9000000000000057-3.6Q-1.9000000000000057-1.7 -2.75-0.85Q-3.5999999999999943 0 -5.5 0L-5.5 0L-20.6 0Q-22.6 0 -23.549999999999997-0.85Q-24.5-1.7 -24.5-3.6L-24.5-3.6L-24.5-17.6L-42.2-17.6ZM 61.3 0L 61.3 0L 11.7 0Q 9.8 0  8.95-0.85Q 8.1-1.7  8.1-3.6L 8.1-3.6L 8.1-17Q 8.1-18.9  8.7-20.35Q 9.3-21.8  10.6-23.2L 10.6-23.2L 34.9-52.7L 13.5-52.7Q 11.6-52.7  10.75-53.55Q 9.9-54.4  9.9-56.3L 9.9-56.3L 9.9-68.4Q 9.9-70.3  10.75-71.15Q 11.6-72  13.5-72L 13.5-72L 59.5-72Q 61.4-72  62.25-71.15Q 63.1-70.3  63.1-68.4L 63.1-68.4L 63.1-53.5Q 63.1-51.5  62.5-50.05Q 61.9-48.6  60.6-47.2L 60.6-47.2L 37.4-19.1L 61.3-19.1Q 63.2-19.1  64.05-18.25Q 64.9-17.4  64.9-15.5L 64.9-15.5L 64.9-3.6Q 64.9-1.7  64.05-0.85Q 63.2 0  61.3 0ZM 21.5-16.8L 50.8-54.4Q 51.5-55.3  52-56.15Q 52.5-57  52.5-58.1L 52.5-58.1L 52.5-59.7Q 52.5-61.4  51.75-62.2Q 51-63  49.4-63L 49.4-63L 18.9-63L 18.9-62L 49.4-62Q 50.2-62  50.85-61.55Q 51.5-61.1  51.5-59.7L 51.5-59.7L 51.5-58.3Q 51.5-57.3  51.15-56.7Q 50.8-56.1  50.1-55.2L 50.1-55.2L 20.8-17.6Q 20.1-16.7  19.6-15.85Q 19.1-15  19.1-13.9L 19.1-13.9L 19.1-12.3Q 19.1-10.6  19.85-9.8Q 20.6-9  22.2-9L 22.2-9L 55.9-9L 55.9-10L 22.2-10Q 21.4-10  20.75-10.45Q 20.1-10.9  20.1-12.3L 20.1-12.3L 20.1-13.7Q 20.1-14.7  20.45-15.3Q 20.8-15.9  21.5-16.8L 21.5-16.8ZM 111.9 0L 111.9 0L 95.7 0Q 93.8 0  92.95-0.85Q 92.1-1.7  92.1-3.6L 92.1-3.6L 92.1-16.4L 76.8-36.9Q 74.5-40  73.75-42.3Q 73-44.6  73-49.2L 73-49.2L 73-68.4Q 73-70.3  73.85-71.15Q 74.7-72  76.6-72L 76.6-72L 92-72Q 93.9-72  94.75-71.15Q 95.6-70.3  95.6-68.4L 95.6-68.4L 95.6-52Q 95.6-51  95.7-49.9Q 95.8-48.8  96.5-47.8L 96.5-47.8L 101.1-40.6Q 101.6-39.7  102.15-39.3Q 102.7-38.9  103.5-38.9L 103.5-38.9L 104.5-38.9Q 105.3-38.9  105.85-39.3Q 106.4-39.7  106.9-40.6L 106.9-40.6L 111.5-47.8Q 112.2-48.8  112.3-49.9Q 112.4-51  112.4-52L 112.4-52L 112.4-68.4Q 112.4-70.3  113.25-71.15Q 114.1-72  116-72L 116-72L 130.9-72Q 132.8-72  133.65-71.15Q 134.5-70.3  134.5-68.4L 134.5-68.4L 134.5-49.2Q 134.5-44.6  133.7-42.3Q 132.9-40  130.7-36.9L 130.7-36.9L 115.5-16.3L 115.5-3.6Q 115.5-1.7  114.65-0.85Q 113.8 0  111.9 0ZM 104.3-26.1L 105-26.1Q 107.3-26.1  109.05-27.1Q 110.8-28.1  112.4-30.3L 112.4-30.3L 122.4-43.8Q 123.6-45.4  123.75-47.35Q 123.9-49.3  123.9-51.5L 123.9-51.5L 123.9-63L 122.9-63L 122.9-51.5Q 122.9-49.4  122.7-47.45Q 122.5-45.5  121.5-44.2L 121.5-44.2L 111.5-30.7Q 110-28.8  108.45-27.95Q 106.9-27.1  105-27.1L 105-27.1L 102.3-27.1Q 100.6-27.1  98.9-27.9Q 97.2-28.7  95.9-30.7L 95.9-30.7L 86.2-44.2Q 85.2-45.7  85-47.55Q 84.8-49.4  84.8-51.5L 84.8-51.5L 84.8-63L 83.8-63L 83.8-51.5Q 83.8-49.3  84-47.3Q 84.2-45.3  85.3-43.8L 85.3-43.8L 95-30.3Q 96.6-28.1  98.35-27.1Q 100.1-26.1  102.3-26.1L 102.3-26.1L 103.3-26.1L 103.3-9L 104.3-9L 104.3-26.1Z"></path><path id="_egibn36m0_15" fill="#000000" transform="matrix(0.7483635544776917, 0, 0, 0.8277230262756348, 254.32620239257812, 415.0946960449219)" text="People" text-anchor="middle" font-size="100" letter-spacing="0" side="left" offset="0.5" dx="0" dy="0" space="preserve" href="" font-family="Bungee Inline" font-scale="contain" x="0" y="0" data-fl-textpath="" font-weight="400" font-style="normal" d="M-178.95 0L-178.95 0L-194.45 0Q-196.35 0 -197.2-0.85Q-198.04999999999998-1.7 -198.04999999999998-3.6L-198.04999999999998-3.6L-198.04999999999998-68.4Q-198.04999999999998-70.3 -197.2-71.15Q-196.35-72 -194.45-72L-194.45-72L-163.85-72Q-150.25-72 -145.25-66.6Q-140.25-61.2 -140.25-52.5L-140.25-52.5L-140.25-39.7Q-140.25-31 -145.25-25.6Q-150.25-20.2 -163.85-20.2L-163.85-20.2L-175.35-20.2L-175.35-3.6Q-175.35-1.7 -176.2-0.85Q-177.04999999999998 0 -178.95 0ZM-185.85-28.7L-165.25-28.7Q-160.54999999999998-28.7 -157.6-29.7Q-154.64999999999998-30.7 -153.04999999999998-32.45Q-151.45-34.2 -150.85-36.65Q-150.25-39.1 -150.25-42L-150.25-42L-150.25-49.4Q-150.25-52.3 -150.85-54.8Q-151.45-57.3 -153.04999999999998-59.1Q-154.64999999999998-60.9 -157.6-61.95Q-160.54999999999998-63 -165.25-63L-165.25-63L-186.85-63L-186.85-9L-185.85-9L-185.85-28.7ZM-165.25-29.7L-185.85-29.7L-185.85-62L-165.25-62Q-160.85-62 -158.1-61.05Q-155.35-60.1 -153.85-58.4Q-152.35-56.7 -151.79999999999998-54.4Q-151.25-52.1 -151.25-49.4L-151.25-49.4L-151.25-42Q-151.25-39.3 -151.79999999999998-37.05Q-152.35-34.8 -153.85-33.15Q-155.35-31.5 -158.1-30.6Q-160.85-29.7 -165.25-29.7L-165.25-29.7ZM-166.54999999999998-53.3L-175.54999999999998-53.3L-175.54999999999998-38.2L-166.54999999999998-38.2Q-163.64999999999998-38.2 -162.75-39.7Q-161.85-41.2 -161.85-43.1L-161.85-43.1L-161.85-48.4Q-161.85-50.3 -162.75-51.8Q-163.64999999999998-53.3 -166.54999999999998-53.3L-166.54999999999998-53.3ZM-79.85 0L-79.85 0L-126.25 0Q-128.15 0 -129-0.85Q-129.85-1.7 -129.85-3.6L-129.85-3.6L-129.85-68.4Q-129.85-70.3 -129-71.15Q-128.15-72 -126.25-72L-126.25-72L-79.85-72Q-77.95-72 -77.1-71.15Q-76.25-70.3 -76.25-68.4L-76.25-68.4L-76.25-56.7Q-76.25-54.8 -77.1-53.95Q-77.95-53.1 -79.85-53.1L-79.85-53.1L-107.45-53.1L-107.45-45.4L-87.95-45.4Q-86.05-45.4 -85.2-44.55Q-84.35-43.7 -84.35-41.8L-84.35-41.8L-84.35-31.1Q-84.35-29.2 -85.2-28.35Q-86.05-27.5 -87.95-27.5L-87.95-27.5L-107.45-27.5L-107.45-18.9L-79.85-18.9Q-77.95-18.9 -77.1-18.05Q-76.25-17.2 -76.25-15.3L-76.25-15.3L-76.25-3.6Q-76.25-1.7 -77.1-0.85Q-77.95 0 -79.85 0ZM-85.25-9L-85.25-10L-117.95-10L-117.95-35.9L-93.35-35.9L-93.35-36.9L-117.95-36.9L-117.95-62L-85.25-62L-85.25-63L-118.95-63L-118.95-9L-85.25-9ZM-3.9499999999999886-53L-3.9499999999999886-18.9Q-3.9499999999999886-14.3 -5.299999999999997-10.55Q-6.6499999999999915-6.8 -10.099999999999994-4.15Q-13.549999999999997-1.5 -19.599999999999994 0Q-25.64999999999999 1.5 -34.949999999999996 1.5L-34.949999999999996 1.5Q-44.24999999999999 1.5 -50.349999999999994 0Q-56.449999999999996-1.5 -59.89999999999999-4.15Q-63.349999999999994-6.8 -64.69999999999999-10.55Q-66.05-14.3 -66.05-18.9L-66.05-18.9L-66.05-53Q-66.05-57.6 -64.69999999999999-61.35Q-63.349999999999994-65.1 -59.89999999999999-67.8Q-56.449999999999996-70.5 -50.349999999999994-72Q-44.24999999999999-73.5 -34.949999999999996-73.5L-34.949999999999996-73.5Q-25.64999999999999-73.5 -19.599999999999994-72Q-13.549999999999997-70.5 -10.099999999999994-67.8Q-6.6499999999999915-65.1 -5.299999999999997-61.35Q-3.9499999999999886-57.6 -3.9499999999999886-53L-3.9499999999999886-53ZM-14.849999999999994-21.2L-14.849999999999994-21.2L-14.849999999999994-50.7Q-14.849999999999994-56.7 -19.14999999999999-60.45Q-23.449999999999996-64.2 -35.14999999999999-64.2L-35.14999999999999-64.2Q-46.849999999999994-64.2 -51.05-60.45Q-55.24999999999999-56.7 -55.24999999999999-50.7L-55.24999999999999-50.7L-55.24999999999999-21.2Q-55.24999999999999-15.2 -51.05-11.45Q-46.849999999999994-7.7 -35.14999999999999-7.7L-35.14999999999999-7.7Q-23.449999999999996-7.7 -19.14999999999999-11.45Q-14.849999999999994-15.2 -14.849999999999994-21.2ZM-54.24999999999999-21.2L-54.24999999999999-21.2L-54.24999999999999-50.7Q-54.24999999999999-56.3 -50.24999999999999-59.75Q-46.24999999999999-63.2 -35.14999999999999-63.2L-35.14999999999999-63.2Q-24.049999999999997-63.2 -19.949999999999996-59.75Q-15.849999999999994-56.3 -15.849999999999994-50.7L-15.849999999999994-50.7L-15.849999999999994-21.2Q-15.849999999999994-15.6 -19.949999999999996-12.15Q-24.049999999999997-8.7 -35.14999999999999-8.7L-35.14999999999999-8.7Q-46.24999999999999-8.7 -50.24999999999999-12.15Q-54.24999999999999-15.6 -54.24999999999999-21.2ZM-43.349999999999994-49.4L-43.349999999999994-22.5Q-43.349999999999994-20.5 -41.849999999999994-19.15Q-40.349999999999994-17.8 -34.949999999999996-17.8L-34.949999999999996-17.8Q-29.549999999999997-17.8 -28.049999999999997-19.15Q-26.549999999999997-20.5 -26.549999999999997-22.5L-26.549999999999997-22.5L-26.549999999999997-49.4Q-26.549999999999997-51.3 -28.049999999999997-52.65Q-29.549999999999997-54 -34.949999999999996-54L-34.949999999999996-54Q-40.349999999999994-54 -41.849999999999994-52.65Q-43.349999999999994-51.3 -43.349999999999994-49.4L-43.349999999999994-49.4ZM 27.85000000000001 0L 27.85000000000001 0L 12.350000000000009 0Q 10.450000000000008 0  9.600000000000009-0.85Q 8.750000000000009-1.7  8.750000000000009-3.6L 8.750000000000009-3.6L 8.750000000000009-68.4Q 8.750000000000009-70.3  9.600000000000009-71.15Q 10.450000000000008-72  12.350000000000009-72L 12.350000000000009-72L 42.95000000000001-72Q 56.55000000000001-72  61.55000000000001-66.6Q 66.55000000000001-61.2  66.55000000000001-52.5L 66.55000000000001-52.5L 66.55000000000001-39.7Q 66.55000000000001-31  61.55000000000001-25.6Q 56.55000000000001-20.2  42.95000000000001-20.2L 42.95000000000001-20.2L 31.45000000000001-20.2L 31.45000000000001-3.6Q 31.45000000000001-1.7  30.60000000000001-0.85Q 29.750000000000007 0  27.85000000000001 0ZM 20.95000000000001-28.7L 41.55000000000001-28.7Q 46.25000000000001-28.7  49.20000000000001-29.7Q 52.150000000000006-30.7  53.75000000000001-32.45Q 55.35000000000001-34.2  55.95000000000001-36.65Q 56.55000000000001-39.1  56.55000000000001-42L 56.55000000000001-42L 56.55000000000001-49.4Q 56.55000000000001-52.3  55.95000000000001-54.8Q 55.35000000000001-57.3  53.75000000000001-59.1Q 52.150000000000006-60.9  49.20000000000001-61.95Q 46.25000000000001-63  41.55000000000001-63L 41.55000000000001-63L 19.95000000000001-63L 19.95000000000001-9L 20.95000000000001-9L 20.95000000000001-28.7ZM 41.55000000000001-29.7L 20.95000000000001-29.7L 20.95000000000001-62L 41.55000000000001-62Q 45.95000000000001-62  48.70000000000001-61.05Q 51.45000000000001-60.1  52.95000000000001-58.4Q 54.45000000000001-56.7  55.00000000000001-54.4Q 55.55000000000001-52.1  55.55000000000001-49.4L 55.55000000000001-49.4L 55.55000000000001-42Q 55.55000000000001-39.3  55.00000000000001-37.05Q 54.45000000000001-34.8  52.95000000000001-33.15Q 51.45000000000001-31.5  48.70000000000001-30.6Q 45.95000000000001-29.7  41.55000000000001-29.7L 41.55000000000001-29.7ZM 40.25000000000001-53.3L 31.250000000000007-53.3L 31.250000000000007-38.2L 40.25000000000001-38.2Q 43.150000000000006-38.2  44.05000000000001-39.7Q 44.95000000000001-41.2  44.95000000000001-43.1L 44.95000000000001-43.1L 44.95000000000001-48.4Q 44.95000000000001-50.3  44.05000000000001-51.8Q 43.150000000000006-53.3  40.25000000000001-53.3L 40.25000000000001-53.3ZM 131.45000000000002 0L 131.45000000000002 0L 80.55000000000001 0Q 78.65 0  77.80000000000001-0.85Q 76.95000000000002-1.7  76.95000000000002-3.6L 76.95000000000002-3.6L 76.95000000000002-68.4Q 76.95000000000002-70.3  77.80000000000001-71.15Q 78.65-72  80.55000000000001-72L 80.55000000000001-72L 96.05000000000001-72Q 97.95000000000002-72  98.80000000000001-71.15Q 99.65-70.3  99.65-68.4L 99.65-68.4L 99.65-18.9L 113.35000000000001-18.9L 113.35000000000001-35.1Q 113.35000000000001-37  114.20000000000002-37.85Q 115.05000000000001-38.7  116.95000000000002-38.7L 116.95000000000002-38.7L 131.45000000000002-38.7Q 133.35000000000002-38.7  134.20000000000002-37.85Q 135.05-37  135.05-35.1L 135.05-35.1L 135.05-3.6Q 135.05-1.7  134.20000000000002-0.85Q 133.35000000000002 0  131.45000000000002 0ZM 87.85000000000001-63L 87.85000000000001-9L 124.65-9L 124.65-29.7L 123.65-29.7L 123.65-10L 88.85000000000001-10L 88.85000000000001-63L 87.85000000000001-63ZM 196.45000000000002 0L 196.45000000000002 0L 150.05 0Q 148.15 0  147.3-0.85Q 146.45000000000002-1.7  146.45000000000002-3.6L 146.45000000000002-3.6L 146.45000000000002-68.4Q 146.45000000000002-70.3  147.3-71.15Q 148.15-72  150.05-72L 150.05-72L 196.45000000000002-72Q 198.35000000000002-72  199.20000000000002-71.15Q 200.05-70.3  200.05-68.4L 200.05-68.4L 200.05-56.7Q 200.05-54.8  199.20000000000002-53.95Q 198.35000000000002-53.1  196.45000000000002-53.1L 196.45000000000002-53.1L 168.85000000000002-53.1L 168.85000000000002-45.4L 188.35000000000002-45.4Q 190.25-45.4  191.10000000000002-44.55Q 191.95000000000002-43.7  191.95000000000002-41.8L 191.95000000000002-41.8L 191.95000000000002-31.1Q 191.95000000000002-29.2  191.10000000000002-28.35Q 190.25-27.5  188.35000000000002-27.5L 188.35000000000002-27.5L 168.85000000000002-27.5L 168.85000000000002-18.9L 196.45000000000002-18.9Q 198.35000000000002-18.9  199.20000000000002-18.05Q 200.05-17.2  200.05-15.3L 200.05-15.3L 200.05-3.6Q 200.05-1.7  199.20000000000002-0.85Q 198.35000000000002 0  196.45000000000002 0ZM 191.05-9L 191.05-10L 158.35000000000002-10L 158.35000000000002-35.9L 182.95000000000002-35.9L 182.95000000000002-36.9L 158.35000000000002-36.9L 158.35000000000002-62L 191.05-62L 191.05-63L 157.35000000000002-63L 157.35000000000002-9L 191.05-9Z"></path></svg>